<?xml version="1.0" standalone="no"?>
<!DOCTYPE svg PUBLIC "-//W3C//DTD SVG 20010904//EN"
 "http://www.w3.org/TR/2001/REC-SVG-20010904/DTD/svg10.dtd">
<svg version="1.0" xmlns="http://www.w3.org/2000/svg"
 width="180.000000pt" height="180.000000pt" viewBox="0 0 180.000000 180.000000"
 preserveAspectRatio="xMidYMid meet">
<metadata>
Created by potrace 1.11, written by Peter Selinger 2001-2013
</metadata>
<g transform="translate(0.000000,180.000000) scale(0.100000,-0.100000)"
fill="#000000" stroke="none">
<path d="M1633 1725 c9 -120 68 -205 141 -205 34 0 33 12 -9 89 l-35 65 35
-34 35 -34 0 67 0 67 -60 30 c-33 16 -71 30 -86 30 l-27 0 6 -75z"/>
<path d="M75 1764 c-74 -38 -75 -39 -75 -115 0 -57 3 -67 15 -63 19 8 20 -16
0 -42 -8 -10 -15 -32 -15 -48 0 -27 2 -28 32 -22 49 10 71 28 103 87 24 45 30
68 33 142 4 86 4 87 -19 87 -13 0 -46 -12 -74 -26z"/>
<path d="M290 1779 c-36 -15 -60 -39 -60 -62 0 -17 5 -19 40 -13 48 8 53 -7 8
-25 -43 -16 -43 -16 -28 -34 22 -26 91 -19 137 14 40 29 83 80 83 99 0 12 -78
32 -122 31 -18 0 -44 -5 -58 -10z"/>
<path d="M804 1776 c-28 -13 -44 -33 -44 -57 0 -5 42 -9 93 -9 103 -1 100 -10
-8 -30 -83 -15 -86 -16 -78 -36 27 -71 213 -42 298 46 29 31 29 32 11 46 -66
48 -206 68 -272 40z"/>
<path d="M1393 1773 c-28 -6 -29 -22 -3 -74 33 -63 115 -100 148 -67 10 10 6
19 -20 41 -33 28 -33 28 -6 23 14 -3 33 -9 42 -12 26 -10 20 39 -9 66 -25 24
-99 35 -152 23z"/>
<path d="M265 1561 c-57 -25 -75 -47 -75 -87 0 -19 3 -34 6 -34 3 0 25 12 50
26 24 14 44 24 44 21 0 -3 -16 -21 -36 -40 -42 -39 -38 -57 11 -57 59 0 124
73 141 159 l7 31 -54 0 c-31 0 -72 -8 -94 -19z"/>
<path d="M1477 1574 c-10 -11 -9 -65 4 -126 15 -70 61 -118 113 -118 41 0 44
10 17 48 -10 15 -26 43 -36 62 -16 33 -14 32 39 -20 46 -45 58 -52 66 -40 16
25 11 86 -9 112 -36 46 -172 103 -194 82z"/>
<path d="M950 1543 c-8 -2 -21 -6 -28 -9 -34 -10 73 -141 134 -164 49 -19 104
-7 104 21 0 5 -22 20 -50 36 -27 15 -50 31 -50 36 0 10 -1 10 65 -13 71 -24
65 -24 65 1 0 58 -68 99 -165 98 -33 0 -67 -3 -75 -6z"/>
<path d="M470 1371 c-30 -9 -68 -26 -83 -36 -48 -31 -71 -98 -47 -135 10 -17
10 -17 86 39 51 37 50 30 -3 -35 -39 -49 -41 -62 -9 -70 45 -11 95 14 126 62
28 45 58 164 45 183 -9 16 -52 13 -115 -8z"/>
<path d="M865 1361 c-74 -19 -115 -55 -115 -100 0 -26 7 -26 70 -2 62 24 64
12 5 -26 -55 -34 -56 -57 -1 -61 51 -4 89 12 130 59 42 46 79 116 67 124 -17
10 -125 14 -156 6z"/>
<path d="M1480 1208 c0 -138 41 -208 119 -208 23 0 41 2 41 5 0 3 -16 38 -35
78 l-36 72 54 -57 c57 -61 71 -68 81 -42 18 47 -1 109 -46 151 -29 27 -126 73
-155 73 -22 0 -23 -4 -23 -72z"/>
<path d="M194 1238 c-43 -46 -62 -79 -75 -131 -9 -38 -8 -51 6 -80 17 -36 43
-54 55 -40 4 4 12 35 19 68 17 91 31 92 31 2 0 -69 2 -77 19 -77 11 0 29 12
41 28 32 40 24 144 -16 209 -16 25 -34 48 -39 50 -6 2 -24 -11 -41 -29z"/>
<path d="M1243 1219 c-40 -12 -40 -20 -8 -75 42 -71 123 -105 170 -70 17 12
15 15 -30 42 -51 29 -47 44 7 25 45 -16 48 -14 48 19 0 21 -8 35 -26 47 -31
20 -116 26 -161 12z"/>
<path d="M679 1089 c-83 -49 -99 -142 -44 -255 35 -72 156 -232 229 -303 49
-48 57 -53 72 -40 49 40 228 271 259 332 42 84 48 161 15 215 -62 101 -210 97
-268 -8 l-26 -46 -20 40 c-29 55 -65 79 -128 83 -41 3 -61 -1 -89 -18z m89
-81 c21 -21 14 -57 -13 -70 -22 -10 -29 -9 -47 10 -19 18 -20 25 -10 47 13 27
49 34 70 13z"/>
<path d="M0 910 c0 -127 2 -152 15 -157 26 -9 29 3 16 78 -6 40 -10 73 -8 76
3 2 17 -28 33 -67 16 -38 34 -70 39 -70 17 0 45 55 45 87 0 15 -9 47 -19 70
-20 42 -96 133 -112 133 -5 0 -9 -68 -9 -150z"/>
<path d="M1760 1043 c-82 -54 -140 -137 -140 -198 0 -38 21 -85 39 -85 4 0 26
34 50 75 23 41 46 75 51 75 5 0 -5 -38 -22 -85 -17 -47 -28 -88 -24 -92 3 -3
24 -1 46 6 l40 12 0 154 c0 85 -3 155 -8 155 -4 0 -19 -7 -32 -17z"/>
<path d="M1429 932 c-70 -45 -101 -87 -97 -135 2 -22 8 -42 15 -44 6 -2 29 18
49 46 21 28 40 49 42 47 2 -2 -11 -31 -27 -65 -33 -64 -31 -68 19 -61 47 6 90
98 90 192 0 43 -2 48 -23 48 -13 0 -43 -13 -68 -28z"/>
<path d="M1734 668 c-55 -62 -83 -119 -84 -168 0 -38 23 -80 44 -80 8 0 29 34
47 75 18 41 34 73 36 71 2 -2 -3 -31 -11 -64 -23 -86 -21 -102 9 -102 l25 0 0
160 c0 89 -4 160 -9 160 -5 0 -30 -24 -57 -52z"/>
<path d="M0 570 c0 -134 7 -149 81 -171 41 -13 87 3 71 24 -4 7 -22 30 -39 52
-70 92 -69 101 2 38 73 -66 89 -73 99 -47 27 69 -40 163 -148 208 -67 28 -66
29 -66 -104z"/>
<path d="M320 570 c0 -120 62 -220 136 -220 19 0 34 3 34 6 0 4 -18 41 -41 83
l-41 76 59 -63 c32 -34 63 -62 70 -62 7 0 15 16 19 35 12 66 -55 145 -161 189
-67 29 -75 24 -75 -44z"/>
<path d="M1084 461 c-48 -36 -92 -107 -75 -124 6 -6 42 -13 80 -15 80 -5 127
14 137 54 10 38 -6 47 -50 29 -50 -21 -70 -13 -28 11 67 38 69 41 47 58 -30
23 -67 19 -111 -13z"/>
<path d="M1529 351 c-75 -23 -119 -63 -119 -108 0 -18 2 -33 5 -33 3 0 28 11
55 25 60 30 66 16 10 -23 -57 -39 -50 -62 19 -62 60 0 171 118 171 182 0 28
-1 28 -57 27 -32 0 -70 -4 -84 -8z"/>
<path d="M1746 318 c-85 -70 -123 -180 -77 -222 21 -19 22 -19 71 68 42 75 50
59 15 -29 -31 -75 -25 -97 20 -77 l25 12 0 140 c0 77 -3 140 -8 140 -4 0 -25
-14 -46 -32z"/>
<path d="M2 193 c3 -125 5 -138 22 -141 17 -4 18 1 12 60 l-6 63 27 -53 c30
-58 44 -64 61 -27 17 36 15 80 -4 118 -17 34 -93 117 -106 117 -5 0 -7 -62 -6
-137z"/>
<path d="M446 291 c-14 -23 30 -139 78 -204 36 -50 113 -79 160 -61 25 10 19
25 -31 76 -26 26 -44 50 -42 53 3 3 32 -13 64 -36 61 -43 75 -41 75 9 0 55
-58 118 -136 146 -56 19 -160 30 -168 17z"/>
<path d="M878 131 c-25 -16 -48 -36 -51 -46 -8 -20 -9 -75 -2 -75 3 0 19 15
36 33 l30 32 -15 -32 c-21 -42 -20 -43 9 -43 17 0 29 9 40 30 16 30 21 130 7
130 -4 0 -29 -13 -54 -29z"/>
<path d="M1482 79 c-36 -18 -62 -49 -62 -75 0 -9 39 -4 45 6 3 6 11 10 16 10
6 0 7 -5 4 -10 -4 -6 8 -10 30 -10 37 0 44 9 61 75 5 22 3 25 -22 25 -16 0
-48 -10 -72 -21z"/>
</g>
</svg>
